:SAMPLES-PER-SECOND 30
:FULLY-SPECIFIED
:DEGREES
819
root  -22.2935 38.7156 26.4754 150.469 79.9261 154.456
RightUpLeg  -16.2954 -5.37721 -0.255388
RightLeg  2.99318 -4.48884 1.80247
RightFoot  4.97664 0.454564 -2.96921
RightToes  5.82063e-011 0 -3.6325e-017
Spine  6.78028 -3.52286 -2.31029
Spine1  10.8586 -3.59646 -1.37328
HEad  -35.5639 -6.8615 -29.2839
LeftShoulder1  0.512588 1.95601 -26.958
LeftArm  3.099 -19.2162 -53.944
LeftForeArm  14.8496 -22.509 -4.21317
LeftHand  -0.0566175 4.65273 5.7716
RightShoulder  -0.624714 -5.31775 27.726
RightArm  10.7268 -0.914833 46.6489
RightForeArm  5.91089 9.05423 6.28882
RightHand  -0.960354 7.58503 -8.87612
LeftUpLeg  18.5207 7.2338 -6.79827
LeftLeg  7.09471 0.918564 -2.3849
LeftFoot  -17.9075 0.215887 1.89458
LeftToes  1.54581e-011 7.46816e-011 -4.69922e-011
820
root  -21.0352 38.7111 26.251 159.134 80.0697 162.999
RightUpLeg  -16.6919 -4.62246 1.10266
RightLeg  6.13145 -5.00529 1.24815
RightFoot  9.16211 1.03414 -5.44191
RightToes  5.82063e-011 0 -3.6325e-017
Spine  6.49004 -3.96988 0.0440801
Spine1  10.9947 -4.06608 -0.948733
HEad  -35.6417 -5.61178 -29.7534
LeftShoulder1  0.44903 2.16324 -27.3308
LeftArm  5.16712 -17.5845 -54.1782
LeftForeArm  15.8969 -21.9842 -4.24567
LeftHand  -0.0449978 4.8422 4.86611
RightShoulder  -0.582084 -5.17929 27.9776
RightArm  8.70636 -1.36837 45.8197
RightForeArm  7.45676 8.53374 5.53728
RightHand  -0.631747 5.12564 -7.29631
LeftUpLeg  19.9163 8.68052 -4.21918
LeftLeg  8.3155 -2.05295 -2.39442
LeftFoot  -17.7531 0.128767 0.413694
LeftToes  1.54581e-011 7.46816e-011 -4.69922e-011
821
root  -19.7874 38.7674 25.9936 169.331 81.346 172.726
RightUpLeg  -16.8307 -4.56698 2.71498
RightLeg  9.16532 -4.30241 1.80803
RightFoot  7.18713 1.05972 -6.16476
RightToes  5.82063e-011 0 -3.6325e-017
Spine  6.04887 -3.90482 4.08677
Spine1  10.4288 -3.534 -1.72937
HEad  -35.8572 -5.44509 -30.2805
LeftShoulder1  0.450592 2.17457 -27.7557
LeftArm  6.54724 -14.975 -54.4145
LeftForeArm  16.8272 -20.4938 -4.65966
LeftHand  -0.0223688 5.44883 4.48341
RightShoulder  -0.572287 -5.16025 27.7811
RightArm  7.2146 -2.00218 45.5841
RightForeArm  6.35718 7.49673 5.02662
RightHand  -0.639444 5.54022 -7.10729
LeftUpLeg  19.6117 11.4921 -1.11184
LeftLeg  12.0659 -5.26375 -2.29757
LeftFoot  -16.899 -0.00382038 -2.16366
LeftToes  1.54581e-011 7.46816e-011 -4.69922e-011
822
root  -18.5775 38.8691 25.8381 177.624 82.4316 -179.442
RightUpLeg  -16.1229 -4.57703 4.01074
RightLeg  10.664 -3.47975 2.12498
RightFoot  5.1566 0.907286 -6.01903
RightToes  5.82063e-011 0 -3.6325e-017
Spine  5.85253 -3.65616 6.30721
Spine1  9.71658 -3.07309 -1.47828
HEad  -35.0059 -4.34556 -30.189
LeftShoulder1  0.430462 2.24527 -28.0605
LeftArm  6.86769 -11.7676 -54.1514
LeftForeArm  17.7813 -17.9756 -5.84599
LeftHand  -0.019348 5.53854 4.79381
RightShoulder  -0.619564 -5.29016 27.9574
RightArm  7.09199 -1.70733 45.4726
RightForeArm  2.54004 5.47657 5.06363
RightHand  -0.765422 4.99148 -8.84103
LeftUpLeg  17.7807 14.252 1.59307
LeftLeg  18.5282 -8.94036 -2.96214
LeftFoot  -14.3471 -0.0676909 -6.24531
LeftToes  1.54581e-011 7.46816e-011 -4.69922e-011
823
root  -17.4994 38.9481 25.7732 -178.445 82.2529 -176.285
RightUpLeg  -16.1523 -4.39379 4.65061
RightLeg  12.4936 -3.69281 1.77354
RightFoot  3.62254 0.972042 -7.19495
RightToes  5.82063e-011 0 -3.6325e-017
Spine  5.86294 -3.57593 6.70783
Spine1  8.86185 -3.05603 -0.214656
HEad  -33.6673 -3.2743 -28.937
LeftShoulder1  0.443748 2.19362 -27.7214
LeftArm  4.82872 -8.49294 -53.8891
LeftForeArm  20.6587 -14.8975 -7.35401
LeftHand  -0.00476522 6.16284 3.65854
RightShoulder  -0.612121 -5.26268 28.0675
RightArm  6.17538 -2.51045 45.6244
RightForeArm  2.55148 5.91216 4.70116
RightHand  -0.68244 5.05861 -7.89241
LeftUpLeg  13.1555 12.8449 2.45833
LeftLeg  27.8569 -9.55305 -5.08579
LeftFoot  -9.18568 0.267919 -11.0125
LeftToes  1.54581e-011 7.46816e-011 -4.69922e-011
